<mxfile host="app.diagrams.net" modified="2023-09-26T16:10:11.993Z" agent="Mozilla/5.0 (Macintosh; Intel Mac OS X 10_15_7) AppleWebKit/537.36 (KHTML, like Gecko) Chrome/114.0.0.0 Safari/537.36" version="21.7.4" etag="TCr2hggk1aNJmY5wsJBZ" type="github">
  <diagram name="第 1 页" id="JskIHVfmOBfvW6RlIAdf">
    <mxGraphModel>
      <root>
        <mxCell id="0" />
        <mxCell id="1" parent="0" />
      </root>
    </mxGraphModel>
  </diagram>
</mxfile>
